<?xml version="1.0"?><svg width="548" height="548" xmlns="http://www.w3.org/2000/svg" xmlns:xlink="http://www.w3.org/1999/xlink">
 <defs>
  <filter color-interpolation-filters="sRGB" id="filter3874">
   <feGaussianBlur id="feGaussianBlur3876" stdDeviation="13.73516"/>
  </filter>
  <clipPath id="clipPath3882" clipPathUnits="userSpaceOnUse">
   <path fill="none" stroke-width="20" id="path3884" d="m127.031227,-1.42857c-70.168407,0 -127.031207,56.862789 -127.031207,127.031262l0,295.343719c0,70.168457 56.8628,127.03125 127.031207,127.03125l295.343834,0c70.168427,0 127.031128,-56.862793 127.031128,-127.03125l0,-295.343719c0,-70.168461 -56.862701,-127.031262 -127.031128,-127.031262l-295.343834,0z"/>
  </clipPath>
  <linearGradient id="linearGradient3852">
   <stop stop-color="#dbe3db" id="stop3854" offset="0"/>
   <stop stop-color="#dbe3db" stop-opacity="0" id="stop3856" offset="1"/>
  </linearGradient>
  <linearGradient y2="1.37557" x2="0.52919" y1="-0.08314" x1="0.52822" id="linearGradient3858" xlink:href="#linearGradient3852"/>
  <linearGradient y2="0.08051" x2="0.33301" y1="1.24256" x1="0.31873" id="linearGradient3864" xlink:href="#linearGradient3852"/>
 </defs>
 <metadata id="metadata7">image/svg+xml</metadata>
 <g>
  <title>Layer 1</title>
  <path fill="#212020" fill-rule="nonzero" stroke-width="1.624" d="m129.888382,61.85714c-33.138779,0 -58.031242,24.892479 -58.031242,58.031258l0,295.34375c0,33.138794 24.892464,58.03125 58.031242,58.03125l295.343704,0c33.138824,0 58.03125,-24.892456 58.03125,-58.03125l0,-295.34375c0,-33.138779 -24.892426,-58.031258 -58.03125,-58.031258l-295.343704,0z" id="path3075"/>
  <path fill="#191818" fill-rule="nonzero" stroke-width="1.624" d="m127.031219,0c-70.16843,0 -127.031219,56.862789 -127.031219,127.03125l0,295.343781c0,70.168427 56.862789,127.031158 127.031219,127.031158l295.34375,0c70.168457,0 127.031281,-56.862732 127.031281,-127.031158l0,-295.343781c0,-70.168461 -56.862823,-127.03125 -127.031281,-127.03125l-295.34375,0z" id="path3077"/>
  <path fill="url(#linearGradient3858)" fill-rule="nonzero" stroke-width="1.624" id="path3862" d="m131.119003,18.543699c-54.6754,0 -98.288803,23.3608 -98.288803,52.646601l0,16.721199c48.312401,3.304398 71.0588,13.390503 119.595795,15.470505c69.275009,2.968994 94.201004,2.970993 157.93399,-8.903206c63.734009,-11.873901 -13.840973,-32.660099 191.21402,-28.207596c4.684998,0.101799 9.303986,0.133499 13.881012,0.211494c-4.383026,-27.042198 -46.184021,-47.938997 -97.894012,-47.938997l-286.442001,0l0,0l0,0z"/>
  <path fill="url(#linearGradient3864)" fill-rule="nonzero" stroke-width="1.624" id="path3079" d="m504.250244,432.017822c-12.825714,-0.056519 -21.857208,5.379456 -65.250031,19.84375c-77.142822,25.714294 -200.009232,34.285706 -211.437759,20c-11.428589,-14.285706 -68.571411,-22.852661 -120.000008,-14.28125c-29.943886,4.990662 -17.265068,22.561523 -33.031219,34.124969c12.894943,5.892914 27.282753,9.156342 42.499969,9.156342l295.344017,0c44.913422,0 82.600098,-28.543274 96.062439,-68.656311c-1.462463,-0.120972 -2.850494,-0.18158 -4.187408,-0.1875z"/>
  <g display="inline" id="layer2">
   <path fill="none" stroke="#000000" stroke-width="20" stroke-miterlimit="4" filter="url(#filter3874)" clip-path="url(#clipPath3882)" d="m-462.968781,1.42857c-70.168427,0 -127.031219,56.862789 -127.031219,127.031269l0,295.343689c0,70.168457 56.862793,127.031311 127.031219,127.031311l295.343781,0c70.168457,0 127.03125,-56.862854 127.03125,-127.031311l0,-295.343689c0,-70.16848 -56.862793,-127.031269 -127.03125,-127.031269l-295.343781,0z" id="path3872"/>
  </g>
  <rect fill="#191818" stroke-width="1.624" x="124" y="167.99995" width="240" height="181" id="svg_1"/>
  <rect fill="#191818" stroke-width="1.624" x="6" y="56" width="13" height="0" id="svg_2"/>
  <rect fill="#191818" stroke-width="1.624" x="10" y="51" width="0" height="9" id="svg_3"/>
  <path fill="#bfbfbf" stroke-width="1.624" d="m61,316l30,-116l52,107l52,-109l85,136l50,-169l49,227l22,-148l20,51l38,-44l31,28" id="svg_4"/>
 </g>
</svg>